<svg xmlns="http://www.w3.org/2000/svg" xmlns:xlink="http://www.w3.org/1999/xlink" contentStyleType="text/css" height="270px" preserveAspectRatio="none" style="width:2830px;height:270px;background:#1B1B1B;" version="1.1" viewBox="0 0 2830 270" width="2830px" zoomAndPan="magnify"><defs/><g><rect fill="#1B1B1B" height="270" style="stroke:none;stroke-width:1.0;" width="2830" x="0" y="0"/><!--cluster Authentication--><g id="cluster_Authentication"><rect fill="none" height="197.86" rx="2.5" ry="2.5" style="stroke:#E7E7E7;stroke-width:1.0;" width="909" x="169.08" y="66.8"/><text fill="#FFFFFF" font-family="sans-serif" font-size="14" font-weight="bold" lengthAdjust="spacing" textLength="117.2363" x="564.9618" y="81.7951">Authentication</text></g><!--cluster Auction Management--><g id="cluster_Auction Management"><rect fill="none" height="197.08" rx="2.5" ry="2.5" style="stroke:#E7E7E7;stroke-width:1.0;" width="790" x="1764.08" y="66.8"/><text fill="#FFFFFF" font-family="sans-serif" font-size="14" font-weight="bold" lengthAdjust="spacing" textLength="168.1025" x="2075.0287" y="81.7951">Auction Management</text></g><!--cluster Payment Processing--><g id="cluster_Payment Processing"><rect fill="none" height="197.76" rx="2.5" ry="2.5" style="stroke:#E7E7E7;stroke-width:1.0;" width="192" x="1404.08" y="66.8"/><text fill="#FFFFFF" font-family="sans-serif" font-size="14" font-weight="bold" lengthAdjust="spacing" textLength="160.4805" x="1419.8398" y="81.7951">Payment Processing</text></g><!--entity User Sign-Up--><g id="elem_User Sign-Up"><rect fill="#313139" height="46.2969" rx="2.5" ry="2.5" style="stroke:#E7E7E7;stroke-width:0.5;" width="131.082" x="712.54" y="101.8"/><rect fill="#313139" height="10" style="stroke:#E7E7E7;stroke-width:0.5;" width="15" x="823.622" y="106.8"/><rect fill="#313139" height="2" style="stroke:#E7E7E7;stroke-width:0.5;" width="4" x="821.622" y="108.8"/><rect fill="#313139" height="2" style="stroke:#E7E7E7;stroke-width:0.5;" width="4" x="821.622" y="112.8"/><text fill="#FFFFFF" font-family="sans-serif" font-size="14" lengthAdjust="spacing" textLength="91.082" x="727.54" y="134.7951">User Sign-Up</text></g><g id="elem_User Table"><ellipse cx="778.0751" cy="231.247" fill="#313139" rx="63.6851" ry="15.137" style="stroke:#E7E7E7;stroke-width:0.5;"/><text fill="#FFFFFF" font-family="sans-serif" font-size="14" lengthAdjust="spacing" textLength="74.8809" x="737.6347" y="234.9946">User Table</text></g><!--entity User Login--><g id="elem_User Login"><rect fill="#313139" height="46.2969" rx="2.5" ry="2.5" style="stroke:#E7E7E7;stroke-width:0.5;" width="114.375" x="562.9" y="101.8"/><rect fill="#313139" height="10" style="stroke:#E7E7E7;stroke-width:0.5;" width="15" x="657.275" y="106.8"/><rect fill="#313139" height="2" style="stroke:#E7E7E7;stroke-width:0.5;" width="4" x="655.275" y="108.8"/><rect fill="#313139" height="2" style="stroke:#E7E7E7;stroke-width:0.5;" width="4" x="655.275" y="112.8"/><text fill="#FFFFFF" font-family="sans-serif" font-size="14" lengthAdjust="spacing" textLength="74.375" x="577.9" y="134.7951">User Login</text></g><!--entity Generate JWT Token--><g id="elem_Generate JWT Token"><rect fill="#313139" height="46.2969" rx="2.5" ry="2.5" style="stroke:#E7E7E7;stroke-width:0.5;" width="183.5205" x="878.32" y="101.8"/><rect fill="#313139" height="10" style="stroke:#E7E7E7;stroke-width:0.5;" width="15" x="1041.8405" y="106.8"/><rect fill="#313139" height="2" style="stroke:#E7E7E7;stroke-width:0.5;" width="4" x="1039.8405" y="108.8"/><rect fill="#313139" height="2" style="stroke:#E7E7E7;stroke-width:0.5;" width="4" x="1039.8405" y="112.8"/><text fill="#FFFFFF" font-family="sans-serif" font-size="14" lengthAdjust="spacing" textLength="143.5205" x="893.32" y="134.7951">Generate JWT Token</text></g><!--entity Celebrity Sign-Up--><g id="elem_Celebrity Sign-Up"><rect fill="#313139" height="46.2969" rx="2.5" ry="2.5" style="stroke:#E7E7E7;stroke-width:0.5;" width="162.3701" x="184.9" y="101.8"/><rect fill="#313139" height="10" style="stroke:#E7E7E7;stroke-width:0.5;" width="15" x="327.2701" y="106.8"/><rect fill="#313139" height="2" style="stroke:#E7E7E7;stroke-width:0.5;" width="4" x="325.2701" y="108.8"/><rect fill="#313139" height="2" style="stroke:#E7E7E7;stroke-width:0.5;" width="4" x="325.2701" y="112.8"/><text fill="#FFFFFF" font-family="sans-serif" font-size="14" lengthAdjust="spacing" textLength="122.3701" x="199.9" y="134.7951">Celebrity Sign-Up</text></g><g id="elem_Celebrity Table"><ellipse cx="360.0805" cy="231.2521" fill="#313139" rx="75.0605" ry="17.4121" style="stroke:#E7E7E7;stroke-width:0.5;"/><text fill="#FFFFFF" font-family="sans-serif" font-size="14" lengthAdjust="spacing" textLength="106.1689" x="303.9961" y="234.9997">Celebrity Table</text></g><!--entity Celebrity Login--><g id="elem_Celebrity Login"><rect fill="#313139" height="46.2969" rx="2.5" ry="2.5" style="stroke:#E7E7E7;stroke-width:0.5;" width="145.6631" x="382.25" y="101.8"/><rect fill="#313139" height="10" style="stroke:#E7E7E7;stroke-width:0.5;" width="15" x="507.9131" y="106.8"/><rect fill="#313139" height="2" style="stroke:#E7E7E7;stroke-width:0.5;" width="4" x="505.9131" y="108.8"/><rect fill="#313139" height="2" style="stroke:#E7E7E7;stroke-width:0.5;" width="4" x="505.9131" y="112.8"/><text fill="#FFFFFF" font-family="sans-serif" font-size="14" lengthAdjust="spacing" textLength="105.6631" x="397.25" y="134.7951">Celebrity Login</text></g><!--entity Create Auction--><g id="elem_Create Auction"><rect fill="#313139" height="46.2969" rx="2.5" ry="2.5" style="stroke:#E7E7E7;stroke-width:0.5;" width="144.2412" x="2111.96" y="101.8"/><rect fill="#313139" height="10" style="stroke:#E7E7E7;stroke-width:0.5;" width="15" x="2236.2012" y="106.8"/><rect fill="#313139" height="2" style="stroke:#E7E7E7;stroke-width:0.5;" width="4" x="2234.2012" y="108.8"/><rect fill="#313139" height="2" style="stroke:#E7E7E7;stroke-width:0.5;" width="4" x="2234.2012" y="112.8"/><text fill="#FFFFFF" font-family="sans-serif" font-size="14" lengthAdjust="spacing" textLength="104.2412" x="2126.96" y="134.7951">Create Auction</text></g><g id="elem_Auction Table"><ellipse cx="2008.084" cy="231.2508" fill="#313139" rx="71.154" ry="16.6308" style="stroke:#E7E7E7;stroke-width:0.5;"/><text fill="#FFFFFF" font-family="sans-serif" font-size="14" lengthAdjust="spacing" textLength="95.9355" x="1957.1162" y="234.9984">Auction Table</text></g><g id="elem_Item Table"><ellipse cx="2181.0814" cy="231.2543" fill="#313139" rx="63.6714" ry="15.1343" style="stroke:#E7E7E7;stroke-width:0.5;"/><text fill="#FFFFFF" font-family="sans-serif" font-size="14" lengthAdjust="spacing" textLength="74.8398" x="2140.6615" y="235.0018">Item Table</text></g><!--entity View Auctions--><g id="elem_View Auctions"><rect fill="#313139" height="46.2969" rx="2.5" ry="2.5" style="stroke:#E7E7E7;stroke-width:0.5;" width="138.2393" x="1938.96" y="101.8"/><rect fill="#313139" height="10" style="stroke:#E7E7E7;stroke-width:0.5;" width="15" x="2057.1993" y="106.8"/><rect fill="#313139" height="2" style="stroke:#E7E7E7;stroke-width:0.5;" width="4" x="2055.1993" y="108.8"/><rect fill="#313139" height="2" style="stroke:#E7E7E7;stroke-width:0.5;" width="4" x="2055.1993" y="112.8"/><text fill="#FFFFFF" font-family="sans-serif" font-size="14" lengthAdjust="spacing" textLength="98.2393" x="1953.96" y="134.7951">View Auctions</text></g><!--entity Place Bid--><g id="elem_Place Bid"><rect fill="#313139" height="46.2969" rx="2.5" ry="2.5" style="stroke:#E7E7E7;stroke-width:0.5;" width="104.0527" x="2291.06" y="101.8"/><rect fill="#313139" height="10" style="stroke:#E7E7E7;stroke-width:0.5;" width="15" x="2375.1127" y="106.8"/><rect fill="#313139" height="2" style="stroke:#E7E7E7;stroke-width:0.5;" width="4" x="2373.1127" y="108.8"/><rect fill="#313139" height="2" style="stroke:#E7E7E7;stroke-width:0.5;" width="4" x="2373.1127" y="112.8"/><text fill="#FFFFFF" font-family="sans-serif" font-size="14" lengthAdjust="spacing" textLength="64.0527" x="2306.06" y="134.7951">Place Bid</text></g><g id="elem_Bid Table"><ellipse cx="2409.0756" cy="231.2538" fill="#313139" rx="58.8356" ry="14.7638" style="stroke:#E7E7E7;stroke-width:0.5;"/><text fill="#FFFFFF" font-family="sans-serif" font-size="14" lengthAdjust="spacing" textLength="65.3516" x="2373.3998" y="235.0013">Bid Table</text></g><!--entity End Auction--><g id="elem_End Auction"><rect fill="#313139" height="46.2969" rx="2.5" ry="2.5" style="stroke:#E7E7E7;stroke-width:0.5;" width="124.0205" x="1780.07" y="101.8"/><rect fill="#313139" height="10" style="stroke:#E7E7E7;stroke-width:0.5;" width="15" x="1884.0905" y="106.8"/><rect fill="#313139" height="2" style="stroke:#E7E7E7;stroke-width:0.5;" width="4" x="1882.0905" y="108.8"/><rect fill="#313139" height="2" style="stroke:#E7E7E7;stroke-width:0.5;" width="4" x="1882.0905" y="112.8"/><text fill="#FFFFFF" font-family="sans-serif" font-size="14" lengthAdjust="spacing" textLength="84.0205" x="1795.07" y="134.7951">End Auction</text></g><!--entity View Bids--><g id="elem_View Bids"><rect fill="#313139" height="46.2969" rx="2.5" ry="2.5" style="stroke:#E7E7E7;stroke-width:0.5;" width="107.6553" x="2430.26" y="101.8"/><rect fill="#313139" height="10" style="stroke:#E7E7E7;stroke-width:0.5;" width="15" x="2517.9153" y="106.8"/><rect fill="#313139" height="2" style="stroke:#E7E7E7;stroke-width:0.5;" width="4" x="2515.9153" y="108.8"/><rect fill="#313139" height="2" style="stroke:#E7E7E7;stroke-width:0.5;" width="4" x="2515.9153" y="112.8"/><text fill="#FFFFFF" font-family="sans-serif" font-size="14" lengthAdjust="spacing" textLength="67.6553" x="2445.26" y="134.7951">View Bids</text></g><!--entity Process Payment--><g id="elem_Process Payment"><rect fill="#313139" height="46.2969" rx="2.5" ry="2.5" style="stroke:#E7E7E7;stroke-width:0.5;" width="160.0322" x="1420.07" y="101.8"/><rect fill="#313139" height="10" style="stroke:#E7E7E7;stroke-width:0.5;" width="15" x="1560.1022" y="106.8"/><rect fill="#313139" height="2" style="stroke:#E7E7E7;stroke-width:0.5;" width="4" x="1558.1022" y="108.8"/><rect fill="#313139" height="2" style="stroke:#E7E7E7;stroke-width:0.5;" width="4" x="1558.1022" y="112.8"/><text fill="#FFFFFF" font-family="sans-serif" font-size="14" lengthAdjust="spacing" textLength="120.0322" x="1435.07" y="134.7951">Process Payment</text></g><g id="elem_Payment Table"><ellipse cx="1500.0842" cy="231.2528" fill="#313139" rx="74.5642" ry="17.3128" style="stroke:#E7E7E7;stroke-width:0.5;"/><text fill="#FFFFFF" font-family="sans-serif" font-size="14" lengthAdjust="spacing" textLength="104.8906" x="1444.6389" y="235.0004">Payment Table</text></g><!--entity UT--><g id="elem_UT"><rect fill="#313139" height="46.2969" rx="2.5" ry="2.5" style="stroke:#E7E7E7;stroke-width:0.5;" width="114.8809" x="1093.64" y="208.1"/><rect fill="#313139" height="10" style="stroke:#E7E7E7;stroke-width:0.5;" width="15" x="1188.5209" y="213.1"/><rect fill="#313139" height="2" style="stroke:#E7E7E7;stroke-width:0.5;" width="4" x="1186.5209" y="215.1"/><rect fill="#313139" height="2" style="stroke:#E7E7E7;stroke-width:0.5;" width="4" x="1186.5209" y="219.1"/><text fill="#FFFFFF" font-family="sans-serif" font-size="14" lengthAdjust="spacing" textLength="74.8809" x="1108.64" y="241.0951">User Table</text></g><!--entity CT--><g id="elem_CT"><rect fill="#313139" height="46.2969" rx="2.5" ry="2.5" style="stroke:#E7E7E7;stroke-width:0.5;" width="146.1689" x="7" y="208.1"/><rect fill="#313139" height="10" style="stroke:#E7E7E7;stroke-width:0.5;" width="15" x="133.1689" y="213.1"/><rect fill="#313139" height="2" style="stroke:#E7E7E7;stroke-width:0.5;" width="4" x="131.1689" y="215.1"/><rect fill="#313139" height="2" style="stroke:#E7E7E7;stroke-width:0.5;" width="4" x="131.1689" y="219.1"/><text fill="#FFFFFF" font-family="sans-serif" font-size="14" lengthAdjust="spacing" textLength="106.1689" x="22" y="241.0951">Celebrity Table</text></g><!--entity IT--><g id="elem_IT"><rect fill="#313139" height="46.2969" rx="2.5" ry="2.5" style="stroke:#E7E7E7;stroke-width:0.5;" width="114.8398" x="2569.66" y="208.1"/><rect fill="#313139" height="10" style="stroke:#E7E7E7;stroke-width:0.5;" width="15" x="2664.4998" y="213.1"/><rect fill="#313139" height="2" style="stroke:#E7E7E7;stroke-width:0.5;" width="4" x="2662.4998" y="215.1"/><rect fill="#313139" height="2" style="stroke:#E7E7E7;stroke-width:0.5;" width="4" x="2662.4998" y="219.1"/><text fill="#FFFFFF" font-family="sans-serif" font-size="14" lengthAdjust="spacing" textLength="74.8398" x="2584.66" y="241.0951">Item Table</text></g><!--entity AT--><g id="elem_AT"><rect fill="#313139" height="46.2969" rx="2.5" ry="2.5" style="stroke:#E7E7E7;stroke-width:0.5;" width="135.9355" x="1612.12" y="208.1"/><rect fill="#313139" height="10" style="stroke:#E7E7E7;stroke-width:0.5;" width="15" x="1728.0555" y="213.1"/><rect fill="#313139" height="2" style="stroke:#E7E7E7;stroke-width:0.5;" width="4" x="1726.0555" y="215.1"/><rect fill="#313139" height="2" style="stroke:#E7E7E7;stroke-width:0.5;" width="4" x="1726.0555" y="219.1"/><text fill="#FFFFFF" font-family="sans-serif" font-size="14" lengthAdjust="spacing" textLength="95.9355" x="1627.12" y="241.0951">Auction Table</text></g><!--entity BT--><g id="elem_BT"><rect fill="#313139" height="46.2969" rx="2.5" ry="2.5" style="stroke:#E7E7E7;stroke-width:0.5;" width="105.3516" x="2719.41" y="208.1"/><rect fill="#313139" height="10" style="stroke:#E7E7E7;stroke-width:0.5;" width="15" x="2804.7616" y="213.1"/><rect fill="#313139" height="2" style="stroke:#E7E7E7;stroke-width:0.5;" width="4" x="2802.7616" y="215.1"/><rect fill="#313139" height="2" style="stroke:#E7E7E7;stroke-width:0.5;" width="4" x="2802.7616" y="219.1"/><text fill="#FFFFFF" font-family="sans-serif" font-size="14" lengthAdjust="spacing" textLength="65.3516" x="2734.41" y="241.0951">Bid Table</text></g><!--entity PT--><g id="elem_PT"><rect fill="#313139" height="46.2969" rx="2.5" ry="2.5" style="stroke:#E7E7E7;stroke-width:0.5;" width="144.8906" x="1243.64" y="208.1"/><rect fill="#313139" height="10" style="stroke:#E7E7E7;stroke-width:0.5;" width="15" x="1368.5306" y="213.1"/><rect fill="#313139" height="2" style="stroke:#E7E7E7;stroke-width:0.5;" width="4" x="1366.5306" y="215.1"/><rect fill="#313139" height="2" style="stroke:#E7E7E7;stroke-width:0.5;" width="4" x="1366.5306" y="219.1"/><text fill="#FFFFFF" font-family="sans-serif" font-size="14" lengthAdjust="spacing" textLength="104.8906" x="1258.64" y="241.0951">Payment Table</text></g><!--link User Sign-Up to User Table--><g id="link_User Sign-Up_User Table"><path d="M778.08,148.58 C778.08,168.95 778.08,192.28 778.08,209.69 " fill="none" id="User Sign-Up-to-User Table" style="stroke:#E7E7E7;stroke-width:1.0;"/><polygon fill="#E7E7E7" points="778.08,215.69,782.08,206.69,778.08,210.69,774.08,206.69,778.08,215.69" style="stroke:#E7E7E7;stroke-width:1.0;"/></g><!--link User Login to User Table--><g id="link_User Login_User Table"><path d="M654.37,148.58 C685.77,169.31 726.2224,196.0148 752.4024,213.2948 " fill="none" id="User Login-to-User Table" style="stroke:#E7E7E7;stroke-width:1.0;"/><polygon fill="#E7E7E7" points="757.41,216.6,752.1021,208.3038,753.237,213.8457,747.6952,214.9805,757.41,216.6" style="stroke:#E7E7E7;stroke-width:1.0;"/></g><!--link User Login to Generate JWT Token--><g id="link_User Login_Generate JWT Token"><path d="M634.37,101.52 C650.19,78.1 678.06,43.5 712.58,28.8 C766.16,6 788.41,10.21 843.58,28.8 C885.93,43.07 921.1283,73.5066 944.3583,97.0766 " fill="none" id="User Login-to-Generate JWT Token" style="stroke:#E7E7E7;stroke-width:1.0;"/><polygon fill="#E7E7E7" points="948.57,101.35,945.1013,92.1322,945.0602,97.7889,939.4035,97.7478,948.57,101.35" style="stroke:#E7E7E7;stroke-width:1.0;"/></g><!--link Celebrity Sign-Up to Celebrity Table--><g id="link_Celebrity Sign-Up_Celebrity Table"><path d="M286.48,148.58 C304.19,168.23 325.4037,191.7625 341.2437,209.3425 " fill="none" id="Celebrity Sign-Up-to-Celebrity Table" style="stroke:#E7E7E7;stroke-width:1.0;"/><polygon fill="#E7E7E7" points="345.26,213.8,342.2072,204.4362,341.9131,210.0854,336.2639,209.7913,345.26,213.8" style="stroke:#E7E7E7;stroke-width:1.0;"/></g><!--link Celebrity Login to Celebrity Table--><g id="link_Celebrity Login_Celebrity Table"><path d="M434.47,148.58 C416.57,168.23 395.1199,191.7839 379.1099,209.3639 " fill="none" id="Celebrity Login-to-Celebrity Table" style="stroke:#E7E7E7;stroke-width:1.0;"/><polygon fill="#E7E7E7" points="375.07,213.8,384.0873,209.8391,378.4366,210.1033,378.1725,204.4526,375.07,213.8" style="stroke:#E7E7E7;stroke-width:1.0;"/></g><!--link Celebrity Login to Generate JWT Token--><g id="link_Celebrity Login_Generate JWT Token"><path d="M472.6,101.44 C491.71,77.93 524.69,43.28 562.58,28.8 C620.92,6.52 784.41,8.87 843.58,28.8 C885.93,43.07 921.1283,73.5066 944.3583,97.0766 " fill="none" id="Celebrity Login-to-Generate JWT Token" style="stroke:#E7E7E7;stroke-width:1.0;"/><polygon fill="#E7E7E7" points="948.57,101.35,945.1013,92.1322,945.0602,97.7889,939.4035,97.7478,948.57,101.35" style="stroke:#E7E7E7;stroke-width:1.0;"/></g><!--link Create Auction to Auction Table--><g id="link_Create Auction_Auction Table"><path d="M2145.9,148.58 C2111.72,168.83 2067.7717,194.8812 2038.3417,212.3212 " fill="none" id="Create Auction-to-Auction Table" style="stroke:#E7E7E7;stroke-width:1.0;"/><polygon fill="#E7E7E7" points="2033.18,215.38,2042.9618,214.2329,2037.4815,212.831,2038.8834,207.3506,2033.18,215.38" style="stroke:#E7E7E7;stroke-width:1.0;"/></g><!--link Create Auction to Item Table--><g id="link_Create Auction_Item Table"><path d="M2183.43,148.58 C2182.85,168.95 2182.1722,192.2825 2181.6722,209.6925 " fill="none" id="Create Auction-to-Item Table" style="stroke:#E7E7E7;stroke-width:1.0;"/><polygon fill="#E7E7E7" points="2181.5,215.69,2185.7567,206.8085,2181.6435,210.6921,2177.76,206.5789,2181.5,215.69" style="stroke:#E7E7E7;stroke-width:1.0;"/></g><!--link View Auctions to Auction Table--><g id="link_View Auctions_Auction Table"><path d="M2008.08,148.58 C2008.08,168.35 2008.08,190.56 2008.08,208.12 " fill="none" id="View Auctions-to-Auction Table" style="stroke:#E7E7E7;stroke-width:1.0;"/><polygon fill="#E7E7E7" points="2008.08,214.12,2012.08,205.12,2008.08,209.12,2004.08,205.12,2008.08,214.12" style="stroke:#E7E7E7;stroke-width:1.0;"/></g><!--link View Auctions to Item Table--><g id="link_View Auctions_Item Table"><path d="M2045.62,148.58 C2080.21,169.43 2125.2216,196.5722 2153.8016,213.8022 " fill="none" id="View Auctions-to-Item Table" style="stroke:#E7E7E7;stroke-width:1.0;"/><polygon fill="#E7E7E7" points="2158.94,216.9,2153.2975,208.8277,2154.658,214.3185,2149.1671,215.6789,2158.94,216.9" style="stroke:#E7E7E7;stroke-width:1.0;"/></g><!--link Place Bid to Bid Table--><g id="link_Place Bid_Bid Table"><path d="M2357.41,148.58 C2370.45,169.19 2386.0809,193.9003 2397.0509,211.2303 " fill="none" id="Place Bid-to-Bid Table" style="stroke:#E7E7E7;stroke-width:1.0;"/><polygon fill="#E7E7E7" points="2400.26,216.3,2398.8261,206.5561,2397.5857,212.0753,2392.0665,210.8349,2400.26,216.3" style="stroke:#E7E7E7;stroke-width:1.0;"/></g><!--link Place Bid to Auction Table--><g id="link_Place Bid_Auction Table"><path d="M2290.74,142.82 C2285.12,144.61 2279.48,146.4 2274.08,148.1 C2195.02,173 2108.2478,199.6456 2055.7878,215.6856 " fill="none" id="Place Bid-to-Auction Table" style="stroke:#E7E7E7;stroke-width:1.0;"/><polygon fill="#E7E7E7" points="2050.05,217.44,2059.8263,218.6336,2054.8315,215.978,2057.4871,210.9833,2050.05,217.44" style="stroke:#E7E7E7;stroke-width:1.0;"/></g><!--link End Auction to Auction Table--><g id="link_End Auction_Auction Table"><path d="M1878.1,148.58 C1910.33,168.83 1951.5794,194.7482 1979.3394,212.1882 " fill="none" id="End Auction-to-Auction Table" style="stroke:#E7E7E7;stroke-width:1.0;"/><polygon fill="#E7E7E7" points="1984.42,215.38,1978.927,207.2052,1980.1862,212.7201,1974.6713,213.9793,1984.42,215.38" style="stroke:#E7E7E7;stroke-width:1.0;"/></g><!--link View Bids to Bid Table--><g id="link_View Bids_Bid Table"><path d="M2467.81,148.58 C2452.99,169.19 2435.0707,194.0971 2422.6207,211.4271 " fill="none" id="View Bids-to-Bid Table" style="stroke:#E7E7E7;stroke-width:1.0;"/><polygon fill="#E7E7E7" points="2419.12,216.3,2427.6197,211.3245,2422.0373,212.2393,2421.1225,206.6569,2419.12,216.3" style="stroke:#E7E7E7;stroke-width:1.0;"/></g><!--link Process Payment to Payment Table--><g id="link_Process Payment_Payment Table"><path d="M1500.08,148.58 C1500.08,168.11 1500.08,189.88 1500.08,207.48 " fill="none" id="Process Payment-to-Payment Table" style="stroke:#E7E7E7;stroke-width:1.0;"/><polygon fill="#E7E7E7" points="1500.08,213.48,1504.08,204.48,1500.08,208.48,1496.08,204.48,1500.08,213.48" style="stroke:#E7E7E7;stroke-width:1.0;"/></g><!--link Process Payment to User Table--><g id="link_Process Payment_User Table"><path d="M1419.71,137.56 C1271.03,159.04 962.7383,203.5719 837.3383,221.6919 " fill="none" id="Process Payment-to-User Table" style="stroke:#E7E7E7;stroke-width:1.0;"/><polygon fill="#E7E7E7" points="831.4,222.55,840.8795,225.2218,836.3486,221.8349,839.7354,217.304,831.4,222.55" style="stroke:#E7E7E7;stroke-width:1.0;"/></g><!--link Process Payment to Auction Table--><g id="link_Process Payment_Auction Table"><path d="M1580.58,142.48 C1685.77,164.07 1861.1425,200.0836 1950.0025,218.3236 " fill="none" id="Process Payment-to-Auction Table" style="stroke:#E7E7E7;stroke-width:1.0;"/><polygon fill="#E7E7E7" points="1955.88,219.53,1947.8681,213.802,1950.9821,218.5246,1946.2595,221.6386,1955.88,219.53" style="stroke:#E7E7E7;stroke-width:1.0;"/></g><!--link User Sign-Up to UT--><g id="link_User Sign-Up_UT"><path d="M843.95,143.76 C918.23,163.89 1034.37,195.49 1078.08,208.1 C1083.05,209.53 1082.4375,209.3343 1087.5975,210.8643 " fill="none" id="User Sign-Up-to-UT" style="stroke:#E7E7E7;stroke-width:1.0;"/><polygon fill="#E7E7E7" points="1093.35,212.57,1085.8584,206.1765,1088.5563,211.1486,1083.5842,213.8465,1093.35,212.57" style="stroke:#E7E7E7;stroke-width:1.0;"/></g><!--link User Login to UT--><g id="link_User Login_UT"><path d="M677.62,143.77 C683.49,145.34 689.39,146.82 695.08,148.1 C863.18,185.91 910.13,169.66 1078.08,208.1 C1083.12,209.25 1082.5171,209.0074 1087.7071,210.4074 " fill="none" id="User Login-to-UT" style="stroke:#E7E7E7;stroke-width:1.0;"/><polygon fill="#E7E7E7" points="1093.5,211.97,1085.8524,205.7641,1088.6726,210.6678,1083.7688,213.488,1093.5,211.97" style="stroke:#E7E7E7;stroke-width:1.0;"/></g><!--link Celebrity Sign-Up to CT--><g id="link_Celebrity Sign-Up_CT"><path d="M225.73,148.58 C194.53,166.08 156.7737,187.2459 125.5937,204.7259 " fill="none" id="Celebrity Sign-Up-to-CT" style="stroke:#E7E7E7;stroke-width:1.0;"/><polygon fill="#E7E7E7" points="120.36,207.66,130.1665,206.748,124.7214,205.2149,126.2544,199.7698,120.36,207.66" style="stroke:#E7E7E7;stroke-width:1.0;"/></g><!--link Celebrity Login to CT--><g id="link_Celebrity Login_CT"><path d="M381.89,146.31 C315.92,164.66 225.2006,189.8822 159.1906,208.2422 " fill="none" id="Celebrity Login-to-CT" style="stroke:#E7E7E7;stroke-width:1.0;"/><polygon fill="#E7E7E7" points="153.41,209.85,163.1527,211.292,158.2271,208.5102,161.009,203.5846,153.41,209.85" style="stroke:#E7E7E7;stroke-width:1.0;"/></g><!--link Create Auction to AT--><g id="link_Create Auction_AT"><path d="M2111.8,144.35 C2106.16,145.66 2100.53,146.93 2095.08,148.1 C1948.91,179.5 1910.04,175.68 1764.08,208.1 C1758.93,209.24 1759.4497,209.0708 1754.1097,210.3708 " fill="none" id="Create Auction-to-AT" style="stroke:#E7E7E7;stroke-width:1.0;"/><polygon fill="#E7E7E7" points="1748.28,211.79,1757.9708,213.5477,1753.1381,210.6073,1756.0785,205.7747,1748.28,211.79" style="stroke:#E7E7E7;stroke-width:1.0;"/></g><!--link Create Auction to IT--><g id="link_Create Auction_IT"><path d="M2256.41,144.16 C2262.05,145.52 2267.65,146.84 2273.08,148.1 C2397.51,176.86 2430.43,176.2 2554.08,208.1 C2559.09,209.39 2558.4888,209.159 2563.6588,210.629 " fill="none" id="Create Auction-to-IT" style="stroke:#E7E7E7;stroke-width:1.0;"/><polygon fill="#E7E7E7" points="2569.43,212.27,2561.8671,205.9611,2564.6206,210.9025,2559.6792,213.6561,2569.43,212.27" style="stroke:#E7E7E7;stroke-width:1.0;"/></g><!--link View Auctions to AT--><g id="link_View Auctions_AT"><path d="M1938.52,148.07 C1882.49,165.89 1809.8477,188.9813 1754.1377,206.7013 " fill="none" id="View Auctions-to-AT" style="stroke:#E7E7E7;stroke-width:1.0;"/><polygon fill="#E7E7E7" points="1748.42,208.52,1758.209,209.6038,1753.1848,207.0044,1755.7841,201.9802,1748.42,208.52" style="stroke:#E7E7E7;stroke-width:1.0;"/></g><!--link View Auctions to IT--><g id="link_View Auctions_IT"><path d="M2077.39,144.58 C2083.02,145.85 2088.63,147.05 2094.08,148.1 C2296.52,187.22 2352.53,164.69 2554.08,208.1 C2559.13,209.19 2558.538,208.9314 2563.738,210.3014 " fill="none" id="View Auctions-to-IT" style="stroke:#E7E7E7;stroke-width:1.0;"/><polygon fill="#E7E7E7" points="2569.54,211.83,2561.8561,205.6691,2564.705,210.5562,2559.8179,213.4051,2569.54,211.83" style="stroke:#E7E7E7;stroke-width:1.0;"/></g><!--link Place Bid to BT--><g id="link_Place Bid_BT"><path d="M2395.28,143.11 C2401.26,144.88 2407.29,146.58 2413.08,148.1 C2540.01,181.26 2575.16,174.94 2702.08,208.1 C2707.63,209.55 2707.6486,209.4607 2713.3686,211.1607 " fill="none" id="Place Bid-to-BT" style="stroke:#E7E7E7;stroke-width:1.0;"/><polygon fill="#E7E7E7" points="2719.12,212.87,2711.6325,206.4718,2714.3272,211.4456,2709.3534,214.1403,2719.12,212.87" style="stroke:#E7E7E7;stroke-width:1.0;"/></g><!--link Place Bid to AT--><g id="link_Place Bid_AT"><path d="M2290.63,143.94 C2285.08,145.5 2279.49,146.92 2274.08,148.1 C2051.05,196.54 1988.32,165.57 1764.08,208.1 C1758.9,209.08 1759.4098,208.876 1754.0598,210.096 " fill="none" id="Place Bid-to-AT" style="stroke:#E7E7E7;stroke-width:1.0;"/><polygon fill="#E7E7E7" points="1748.21,211.43,1757.8741,213.3289,1753.0849,210.3184,1756.0954,205.5291,1748.21,211.43" style="stroke:#E7E7E7;stroke-width:1.0;"/></g><!--link End Auction to AT--><g id="link_End Auction_AT"><path d="M1806.93,148.58 C1779.76,166.08 1747.3648,186.932 1720.2148,204.412 " fill="none" id="End Auction-to-AT" style="stroke:#E7E7E7;stroke-width:1.0;"/><polygon fill="#E7E7E7" points="1715.17,207.66,1724.9026,206.1512,1719.374,204.9533,1720.5719,199.4247,1715.17,207.66" style="stroke:#E7E7E7;stroke-width:1.0;"/></g><!--link View Bids to BT--><g id="link_View Bids_BT"><path d="M2538.26,145.57 C2590.07,164.33 2662.0786,190.4068 2713.4886,209.0268 " fill="none" id="View Bids-to-BT" style="stroke:#E7E7E7;stroke-width:1.0;"/><polygon fill="#E7E7E7" points="2719.13,211.07,2712.0301,204.2442,2714.4288,209.3673,2709.3058,211.7661,2719.13,211.07" style="stroke:#E7E7E7;stroke-width:1.0;"/></g><!--link Process Payment to PT--><g id="link_Process Payment_PT"><path d="M1460.16,148.58 C1429.3,166.08 1392.0003,187.2221 1361.1503,204.7021 " fill="none" id="Process Payment-to-PT" style="stroke:#E7E7E7;stroke-width:1.0;"/><polygon fill="#E7E7E7" points="1355.93,207.66,1365.7323,206.7034,1360.2802,205.1951,1361.7885,199.743,1355.93,207.66" style="stroke:#E7E7E7;stroke-width:1.0;"/></g><!--link Process Payment to UT--><g id="link_Process Payment_UT"><path d="M1424.36,148.58 C1359.6,167.93 1273.5388,193.652 1214.5788,211.272 " fill="none" id="Process Payment-to-UT" style="stroke:#E7E7E7;stroke-width:1.0;"/><polygon fill="#E7E7E7" points="1208.83,212.99,1218.5985,214.2455,1213.6206,211.5583,1216.3078,206.5805,1208.83,212.99" style="stroke:#E7E7E7;stroke-width:1.0;"/></g><!--link Process Payment to AT--><g id="link_Process Payment_AT"><path d="M1539.14,148.58 C1569.33,166.08 1605.7384,187.1721 1635.9084,204.6521 " fill="none" id="Process Payment-to-AT" style="stroke:#E7E7E7;stroke-width:1.0;"/><polygon fill="#E7E7E7" points="1641.1,207.66,1635.3179,199.6871,1636.7737,205.1534,1631.3074,206.6092,1641.1,207.66" style="stroke:#E7E7E7;stroke-width:1.0;"/></g><!--SRC=[ZPFVQeCm5CRlVOg3Lzj5Ns5WPOoE5OJgTb5waQO76wfHaenHnjvzCOsQQ2prIi_tEt_oUI8lZBT4a1fQGY-an9swLWW2gOhaeD6cRXkEN3bgP1CWJhxLMMkC4iKQ7iDl1FhP5n85x5Z9LqLxWDNg1PvCA2V72fyTvgCf6N-84AmyAutjtv2Z80hX_Ik7lBaWFqGtFiKAZuAfwwJr67UhZr5tY4VPk-FyUGxHpXhO4gw_QstMu58gi4kqX1sWvxts8N2ZiEwf6_R9yAU7v9ro8MvUBQi8HLYpaoNqcrTbgaywtQ1NVhf_FcSYNKhEUxbUPkJQ6GYPQ2XAoNWvU6b3O15Rfq_mvWwIi-KBOvFfzN33_O1uh143aL3ahZXPB4Ea7Z7-0YDkFD5hRFJ4qmV7ZBRsDCy5esTv50KkgPvuTYsxsCB5IZt9oJ52O6UJXRW-QcWfat2ueoVBjvw7kkJPzWqLnrqpgQ5_dIq9nPAGvFy0]--></g></svg>